<svg width="273" height="87" viewBox="0 0 273 87" fill="none" xmlns="http://www.w3.org/2000/svg">
<path opacity="0.3" d="M261.43 20.7127H10.8367C4.85175 20.7127 0 25.5644 0 31.5494V76.1631C0 82.148 4.85175 86.9998 10.8367 86.9998H261.43C267.415 86.9998 272.266 82.148 272.266 76.1631V31.5494C272.266 25.5644 267.415 20.7127 261.43 20.7127Z" fill="#1A1A1A" fill-opacity="0.36"/>
<path d="M261.43 10.9484H10.8367C4.85175 10.9484 0 15.8002 0 21.7851V66.3989C0 72.3838 4.85175 77.2356 10.8367 77.2356H261.43C267.415 77.2356 272.266 72.3838 272.266 66.3989V21.7851C272.266 15.8002 267.415 10.9484 261.43 10.9484Z" fill="#103F5D"/>
<path d="M261.43 0H10.8367C4.85175 0 0 4.85176 0 10.8367V55.4504C0 61.4354 4.85175 66.2871 10.8367 66.2871H261.43C267.415 66.2871 272.266 61.4354 272.266 55.4504V10.8367C272.266 4.85176 267.415 0 261.43 0Z" fill="url(#paint0_linear_442_85)"/>
<path opacity="0.5" d="M261.436 0H10.8367C7.96365 -4.24766e-07 5.20821 1.14092 3.17611 3.17192C1.144 5.20292 0.00156229 7.95776 0 10.8308V16.0046C0 13.1305 1.14175 10.3742 3.17402 8.34191C5.20629 6.30963 7.96263 5.16792 10.8367 5.16792H261.436C264.31 5.16792 267.066 6.30963 269.099 8.34191C271.131 10.3742 272.273 13.1305 272.273 16.0046V10.8308C272.271 7.95776 271.129 5.20292 269.096 3.17192C267.064 1.14092 264.309 -4.24766e-07 261.436 0V0Z" fill="white"/>
<defs>
<linearGradient id="paint0_linear_442_85" x1="410071" y1="27084.9" x2="410071" y2="19628.3" gradientUnits="userSpaceOnUse">
<stop stop-color="#4DBABC"/>
<stop offset="0.32" stop-color="#77AEAF"/>
<stop offset="0.75" stop-color="#1B8789"/>
<stop offset="1" stop-color="#66C9CB"/>
</linearGradient>
</defs>
</svg>
