<svg width="121" height="71" viewBox="0 0 121 71" fill="none" xmlns="http://www.w3.org/2000/svg">
<g clip-path="url(#clip0_427_10)">
<path d="M83.0957 52.3875H36.8767V69.1312H83.0957V52.3875Z" fill="#F8F7F1"/>
<path d="M75.7135 55.4259C72.9618 55.369 70.2361 57.5139 70.3717 60.8839C70.4775 63.5212 72.6679 65.716 75.5269 65.7714C78.3711 65.7808 80.6312 63.6515 80.7668 60.8464C80.9079 57.922 78.6203 55.486 75.7135 55.4259ZM75.7229 63.7623C73.8783 63.7576 72.4037 62.5029 72.4021 60.6193C72.4005 58.6328 74.01 57.4351 75.5841 57.4374C77.2963 57.4398 78.7387 58.8482 78.745 60.532C78.752 62.2766 77.3653 63.7662 75.7229 63.7623Z" fill="#0A354B"/>
<path d="M61.9065 55.7848C61.0513 55.621 60.1568 55.6405 59.2795 55.6101C58.712 55.5906 58.6297 55.6959 58.6289 56.2561C58.6273 57.7129 58.6289 59.1704 58.6289 60.6272C58.6383 60.6272 58.6477 60.6272 58.6579 60.6272C58.6579 60.8464 58.6594 61.0657 58.6579 61.2841C58.6493 62.5661 58.6398 63.8473 58.6312 65.1293C58.6297 65.3688 58.6837 65.5998 58.9691 65.6013C59.8267 65.6076 60.6977 65.677 61.5397 65.5592C63.8484 65.2346 66.2386 62.8962 65.7189 59.811C65.3935 57.8791 63.8468 56.1562 61.9081 55.7848H61.9065ZM62.0187 63.2949C61.7537 63.4182 61.4652 63.5149 61.1775 63.5641C60.8114 63.6257 60.704 63.5056 60.704 63.1326C60.704 62.3008 60.704 61.4691 60.704 60.6381C60.7001 60.6381 60.6961 60.6381 60.6922 60.6381C60.6922 59.7954 60.6875 58.9527 60.6946 58.1108C60.6977 57.7285 60.8286 57.6341 61.2151 57.6973C62.449 57.8994 63.5787 58.9753 63.701 60.1816C63.8398 61.5572 63.378 62.6621 62.0187 63.2964V63.2949Z" fill="#0A354B"/>
<path d="M56.194 55.5937C55.8239 55.6023 55.4531 55.5952 55.0533 55.5952C55.0533 55.7411 55.0541 55.8488 55.0533 55.9573C55.0408 57.2603 55.0204 58.5634 55.0188 59.8672C55.0173 60.9057 55.0361 61.9442 55.0533 62.9828C55.0627 63.5641 54.4191 64.0236 53.8766 63.8052C53.4266 63.6241 53.2847 63.2613 53.2863 62.8033C53.2949 60.5242 53.2965 58.2458 53.2996 55.9666C53.2996 55.8512 53.2894 55.7365 53.2824 55.5835C52.7736 55.5835 52.3017 55.5905 51.8305 55.5812C51.4135 55.5734 51.4135 55.5671 51.4127 55.9916C51.4056 58.2598 51.3884 60.5273 51.3923 62.7955C51.3939 63.7708 51.7145 64.6049 52.5369 65.2182C53.3655 65.8362 54.2733 65.94 55.1858 65.5608C56.2496 65.1191 56.905 64.2936 56.9168 63.1037C56.9387 60.8363 56.9246 58.568 56.9199 56.3006C56.9183 55.5742 56.912 55.5773 56.194 55.5937Z" fill="#0A354B"/>
<path d="M49.0436 55.6148C47.899 55.6054 46.7537 55.5999 45.6091 55.6046C44.5625 55.6085 44.5625 55.6148 44.5539 56.6439C44.5453 57.6481 44.5508 57.6536 45.5534 57.6559C46.0802 57.6575 46.1281 57.7043 46.1289 58.2427C46.1304 59.3811 46.1289 60.5203 46.1289 61.6587C46.1289 62.8306 46.1375 64.0018 46.1234 65.173C46.1194 65.4828 46.2464 65.6232 46.5381 65.6373C46.8563 65.6529 47.1754 65.6669 47.4945 65.6661C48.0644 65.6654 48.1436 65.5873 48.1467 65.0216C48.1569 62.8431 48.164 60.6639 48.1718 58.4854C48.1718 58.3543 48.1749 58.2224 48.1765 58.0913C48.1804 57.7847 48.3168 57.6247 48.6453 57.645C48.8758 57.6591 49.1078 57.6536 49.3383 57.6427C49.5821 57.631 49.7264 57.5108 49.724 57.2494C49.7209 56.9209 49.7319 56.5924 49.7217 56.2647C49.7028 55.6678 49.6558 55.6187 49.042 55.6132L49.0436 55.6148Z" fill="#0A354B"/>
<path d="M41.9105 59.6432C41.7192 59.3631 41.5114 59.09 41.3586 58.7904C41.0693 58.22 41.4001 57.5576 42.0241 57.4078C42.5557 57.2798 42.5572 57.2798 42.5549 56.711C42.5549 56.6026 42.5478 56.491 42.522 56.3856C42.4553 56.1157 42.7054 55.7349 42.3738 55.5874C42.1245 55.4766 41.7913 55.5484 41.495 55.5461C41.4205 55.5461 41.3453 55.5757 41.2708 55.5921C39.5281 55.9666 38.5818 58.3496 39.706 60.0045C40.1795 60.7013 40.6789 61.3817 41.1744 62.0636C41.6792 62.7581 41.4378 63.4985 40.6178 63.7318C40.4712 63.7732 40.3144 63.7794 40.1623 63.7974C39.9294 63.8255 39.5743 63.7693 39.4912 63.8933C39.365 64.0829 39.4269 64.3974 39.4089 64.658C39.4144 64.658 39.4199 64.658 39.4254 64.6588C39.4254 64.8226 39.4316 64.9873 39.4238 65.1511C39.4081 65.4617 39.5359 65.6247 39.8558 65.6996C40.479 65.8456 41.0575 65.7738 41.6533 65.5436C43.124 64.9756 43.9668 62.9453 43.2181 61.5674C42.8496 60.8893 42.3479 60.2831 41.9105 59.6417V59.6432Z" fill="#0A354B"/>
<path d="M69.0476 55.9745C69.0507 55.7575 68.9394 55.6327 68.7395 55.6233C68.3114 55.6031 67.8818 55.5976 67.453 55.6054C67.2382 55.6093 67.1245 55.7263 67.1261 55.9659C67.1332 57.5092 67.13 59.0518 67.13 60.5952C67.134 60.5952 67.1379 60.5952 67.141 60.5952C67.141 60.6826 67.141 60.77 67.141 60.8581C67.1449 62.3024 67.152 63.7475 67.1504 65.1917C67.1504 65.4945 67.2484 65.6739 67.5847 65.6661C67.8709 65.6599 68.157 65.6708 68.4431 65.6716C68.977 65.6732 69.0664 65.5897 69.0672 65.0677C69.0695 63.7326 69.0734 62.3968 69.0679 61.0618C69.0632 59.8906 69.0436 58.7202 69.0366 57.549C69.0335 57.0239 69.0397 56.4988 69.0483 55.9745H69.0476Z" fill="#0A354B"/>
<path d="M83.0894 25.8477H36.9042V39.1621H83.0894V25.8477Z" fill="#EE7A00"/>
<path d="M83.0894 39.1629H36.8767V52.3883H83.0894V39.1629Z" fill="#EA4315"/>
<path d="M64.0232 38.2195C63.701 37.884 63.6704 37.7717 63.8679 37.373C64.1345 36.8361 64.3704 36.3032 64.4653 35.6923C64.6856 34.2776 64.4363 33.0136 63.5191 31.883C62.5305 30.6642 61.2645 30.0455 59.3391 30.0205C58.603 29.9987 57.6128 30.3732 56.7772 30.9966C55.602 31.8729 54.9357 33.1018 54.8769 34.589C54.8377 35.5768 55.0133 36.5287 55.5958 37.3659C55.7714 37.6187 55.7651 37.831 55.5283 38.058C55.0415 38.5238 54.6793 39.0739 54.365 39.6747C53.7652 40.8194 53.603 42.0343 53.817 43.2655C54.0216 44.4429 54.4606 45.5517 55.3786 46.4147C55.9979 46.9967 56.6212 47.5679 57.4435 47.8371C57.968 48.0087 58.5112 48.1468 59.0569 48.2256C60.2124 48.3918 61.3044 48.1905 62.3651 47.6654C63.7347 46.9874 64.6684 45.9442 65.2555 44.5693C65.7196 43.484 65.8215 42.3448 65.6091 41.1923C65.3974 40.043 64.8314 39.063 64.0239 38.2203L64.0232 38.2195ZM59.6072 33.3554C60.5103 33.3187 61.1814 33.9359 61.2057 34.8238C61.2284 35.6681 60.635 36.2923 59.7742 36.3305C59.1282 36.4288 58.2565 35.8109 58.2157 34.8878C58.1843 34.1715 58.893 33.3842 59.6072 33.3554ZM59.6017 45.0016C58.2024 45.0258 56.9151 43.5066 57.0758 42.3042C56.9512 40.803 58.5834 39.5694 59.7961 39.6427C61.0418 39.7176 62.4263 41.0215 62.4137 42.124C62.391 44.0466 61.0551 44.9758 59.6025 45.0016H59.6017Z" fill="#0A354B"/>
<path d="M50.3857 32.1491C49.7962 31.4523 49.0687 30.9615 48.2573 30.5847C47.9123 30.4247 47.5353 30.2827 47.1613 30.246C46.4252 30.1742 45.6946 30.0939 44.9365 30.207C43.4572 30.4271 42.2577 31.1137 41.3029 32.2022C40.4994 33.119 40.0878 34.2168 39.9741 35.4551C39.8275 37.0593 40.2736 38.4373 41.241 39.7013C41.8689 40.5221 42.7116 41.041 43.6014 41.4975C44.3078 41.8603 45.0917 41.9313 45.8749 41.9656C46.4166 41.989 46.5224 42.0959 46.3688 42.6047C46.1571 43.3046 45.907 43.9927 45.664 44.6833C45.323 45.6508 44.9749 46.616 44.626 47.5812C44.4842 47.9729 44.5484 48.0657 44.9702 48.0821C45.486 48.1024 46.0019 48.1336 46.5185 48.1594C46.5185 48.1477 46.5193 48.1352 46.5201 48.1235C46.7294 48.1235 46.9387 48.1289 47.148 48.1227C47.6492 48.1076 47.9819 47.8665 48.146 47.3994C48.153 47.3791 48.1593 47.358 48.1671 47.337C48.7324 45.7405 49.296 44.1441 49.8644 42.5493C50.3849 41.087 50.929 39.6326 51.4268 38.1626C51.6988 37.3597 51.9191 36.5521 51.8266 35.665C51.6886 34.3385 51.2543 33.1728 50.3873 32.1491H50.3857ZM45.936 38.662C44.2733 38.6612 43.1773 37.3433 43.2291 35.9966C43.2886 34.4462 44.6613 33.4428 45.6193 33.3975C47.3981 33.3133 48.5881 34.6647 48.5387 36.1534C48.5011 37.284 47.3691 38.7478 45.936 38.662Z" fill="#0A354B"/>
<path d="M79.0781 39.8682C78.2926 38.7478 77.4491 37.6671 76.6745 36.5396C76.2959 35.9888 75.9635 35.4254 76.2167 34.6514C76.4111 34.0584 77.2014 33.4022 77.9061 33.4287C78.3741 33.4467 78.429 33.4084 78.4251 32.9309C78.4196 32.1233 78.3875 31.3158 78.382 30.5082C78.3804 30.296 78.2722 30.182 78.0966 30.1789C77.4749 30.168 76.8337 30.0892 76.234 30.2062C74.8064 30.4832 73.8022 31.3641 73.1421 32.6383C72.7564 33.3835 72.4977 34.1778 72.4867 35.0142C72.4797 35.562 72.5471 36.1292 72.6921 36.6567C72.9563 37.6187 73.5944 38.3904 74.1636 39.1902C74.8244 40.1179 75.5065 41.0316 76.143 41.975C76.4362 42.4103 76.5562 42.9269 76.3649 43.4442C76.0662 44.2502 75.4249 44.6341 74.5987 44.7067C74.1455 44.7465 73.6846 44.716 73.2275 44.7035C73.041 44.6989 72.9296 44.7488 72.9187 44.9485C72.8951 45.3956 72.8693 45.8419 72.845 46.289C72.8528 46.289 72.8614 46.289 72.8693 46.2898C72.8693 46.6402 72.8583 46.9913 72.8724 47.3408C72.8842 47.617 72.9163 47.9174 73.2354 48.0142C73.6321 48.1351 74.0381 48.2748 74.4466 48.2959C75.2344 48.3364 75.9964 48.2389 76.7459 47.9011C77.6019 47.5156 78.3459 47.0061 78.9009 46.2766C79.5501 45.4222 79.9381 44.4562 80.0432 43.3576C80.1678 42.0514 79.8111 40.9107 79.0789 39.8675L79.0781 39.8682Z" fill="#0A354B"/>
<path d="M70.2085 30.0962C69.8346 30.0876 69.4606 30.0939 69.0867 30.0939C68.7347 30.0939 68.3827 30.0923 68.0307 30.0939C67.6152 30.0954 67.5384 30.1547 67.565 30.5745C67.6113 31.3041 67.6889 32.0313 67.7508 32.7592C67.8449 33.8696 67.9343 34.9799 68.0283 36.0894C68.0511 36.3609 68.2055 36.5045 68.4823 36.5069C68.8452 36.5092 69.2082 36.5154 69.5712 36.5061C69.9326 36.4967 70.069 36.3703 70.1058 36.0161C70.1583 35.5167 70.1999 35.0166 70.2469 34.5172C70.3716 33.2032 70.4939 31.8885 70.6224 30.5745C70.6546 30.2468 70.5472 30.104 70.2093 30.0954L70.2085 30.0962Z" fill="#0A354B"/>
<path d="M59.9757 71C52.6309 71 45.2869 71 37.9421 71C36.1273 71 35.0008 69.8881 35.0008 68.0958C35 54.3343 35 40.5736 35 26.8121C35 25.4529 35.7604 24.4089 37.0022 24.096C37.2868 24.0242 37.5933 24.0164 37.8896 24.0164C52.6223 24.0133 67.3557 24.0242 82.0884 24C83.9119 23.9969 85.0023 25.3577 84.9992 26.9088C84.9765 40.6477 84.9851 54.3874 84.9874 68.1263C84.9874 69.3692 84.4638 70.2899 83.2996 70.7768C82.9257 70.9329 82.4843 70.9906 82.0735 70.9914C74.7068 71.0039 67.3401 71 59.9741 71H59.9757ZM59.9647 69.1312C64.9976 69.1312 70.0298 69.1312 75.0627 69.1312C77.4404 69.1312 79.8189 69.1312 82.1966 69.1312C82.7508 69.1312 83.0817 68.8129 83.1052 68.2644C83.1099 68.1551 83.1067 68.0451 83.1067 67.9359C83.1028 62.0745 83.1013 56.2132 83.095 50.3519C83.0871 42.5625 83.0762 34.7731 83.0652 26.9845C83.0652 26.8534 83.0574 26.7216 83.0503 26.5905C83.0331 26.2706 82.8535 26.0529 82.5666 25.946C82.3863 25.8789 82.1801 25.8524 81.9857 25.8524C67.3299 25.8485 52.6748 25.8485 38.019 25.8485C37.2146 25.8485 36.9199 26.1364 36.9183 26.9291C36.9081 31.1355 36.8956 35.3419 36.8893 39.5491C36.8823 43.9974 36.8799 48.4457 36.8783 52.8932C36.8768 57.9657 36.8783 63.0389 36.8783 68.1114C36.8783 68.8363 37.1762 69.132 37.8982 69.132C45.254 69.132 52.609 69.132 59.9647 69.132V69.1312Z" fill="#0A354B"/>
</g>
<path d="M11.7275 15V2.36C11.8742 2.32 12.3942 2.26667 13.2875 2.2C14.1942 2.13333 14.8875 2.1 15.3675 2.1C18.6342 2.1 20.2675 3.42667 20.2675 6.08C20.2675 7.78667 19.6875 9.02667 18.5275 9.8C17.7808 10.2933 16.9208 10.54 15.9475 10.54C15.7342 10.54 15.4475 10.52 15.0875 10.48C14.7408 10.44 14.5608 10.4067 14.5475 10.38V15H11.7275ZM14.5475 8.1C14.8808 8.24667 15.2808 8.32 15.7475 8.32C16.2142 8.32 16.5875 8.13333 16.8675 7.76C17.1608 7.38667 17.3075 6.89333 17.3075 6.28C17.3075 5 16.7808 4.36 15.7275 4.36C15.0208 4.36 14.6275 4.40667 14.5475 4.5V8.1ZM25.6228 5.68C27.1295 5.68 28.3028 6.20667 29.1428 7.26C29.8361 8.12667 30.1828 9.2 30.1828 10.48C30.1828 11.96 29.6561 13.1667 28.6028 14.1C27.7495 14.86 26.7561 15.24 25.6228 15.24C24.3161 15.24 23.2161 14.7467 22.3228 13.76C21.4961 12.8667 21.0828 11.7733 21.0828 10.48C21.0828 9 21.5295 7.81333 22.4228 6.92C23.2495 6.09333 24.3161 5.68 25.6228 5.68ZM23.8628 10.48C23.8628 12.3067 24.4561 13.22 25.6428 13.22C26.8161 13.22 27.4028 12.3067 27.4028 10.48C27.4028 8.56 26.8095 7.6 25.6228 7.6C24.4495 7.6 23.8628 8.56 23.8628 10.48ZM36.4111 15H34.0511L30.9111 5.92H33.6311L35.1911 11.68L36.3911 5.92H39.1311C39.3178 6.89333 39.6178 8.41333 40.0311 10.48L40.2311 11.36L40.2911 11.68L41.9111 5.92H44.7111L44.2711 7.12L43.9911 7.92C42.8578 11.0533 41.9978 13.4133 41.4111 15H39.0311C38.9111 14.52 38.7378 13.78 38.5111 12.78C38.1911 11.4333 37.9244 10.3467 37.7111 9.52C37.5511 10.1467 37.3511 11 37.1111 12.08C36.7911 13.4133 36.5578 14.3867 36.4111 15ZM54.423 11.34H48.223C48.263 11.8867 48.4963 12.3533 48.923 12.74C49.3496 13.1133 49.8363 13.3 50.383 13.3C51.2496 13.3 52.1696 13.0267 53.143 12.48L53.823 13.92C53.3963 14.3067 52.8363 14.6267 52.143 14.88C51.4496 15.12 50.783 15.24 50.143 15.24C48.583 15.24 47.3696 14.8067 46.503 13.94C45.663 13.1133 45.243 11.9667 45.243 10.5C45.243 9.07333 45.7163 7.89333 46.663 6.96C47.5296 6.10667 48.623 5.68 49.943 5.68C51.3963 5.68 52.5296 6.15333 53.343 7.1C54.063 7.92667 54.423 9.00667 54.423 10.34V11.34ZM48.063 9.34H51.703C51.6363 8.16667 51.0363 7.58 49.903 7.58C48.8096 7.58 48.1963 8.16667 48.063 9.34ZM58.7094 5.92L58.9694 6.66C59.0894 6.40667 59.336 6.18 59.7094 5.98C60.0827 5.78 60.456 5.68 60.8294 5.68C62.0694 5.68 62.9894 6.28667 63.5894 7.5C63.3627 7.62 62.9827 7.82 62.4494 8.1C61.9427 8.38 61.5627 8.58667 61.3094 8.72C60.8694 8.2 60.4027 7.94 59.9094 7.94C59.5227 7.94 59.2494 8.14667 59.0894 8.56V15H56.4094V5.92H58.7094ZM73.0363 11.34H66.8363C66.8763 11.8867 67.1096 12.3533 67.5363 12.74C67.9629 13.1133 68.4496 13.3 68.9963 13.3C69.8629 13.3 70.7829 13.0267 71.7563 12.48L72.4363 13.92C72.0096 14.3067 71.4496 14.6267 70.7563 14.88C70.0629 15.12 69.3963 15.24 68.7563 15.24C67.1963 15.24 65.9829 14.8067 65.1163 13.94C64.2763 13.1133 63.8563 11.9667 63.8563 10.5C63.8563 9.07333 64.3296 7.89333 65.2763 6.96C66.1429 6.10667 67.2363 5.68 68.5563 5.68C70.0096 5.68 71.1429 6.15333 71.9563 7.1C72.6763 7.92667 73.0363 9.00667 73.0363 10.34V11.34ZM66.6763 9.34H70.3163C70.2496 8.16667 69.6496 7.58 68.5163 7.58C67.4229 7.58 66.8096 8.16667 66.6763 9.34ZM80.9627 6.38V3.64L83.6827 2.14V15H81.5027L81.1027 14.04C80.9027 14.3867 80.5627 14.6733 80.0827 14.9C79.616 15.1267 79.136 15.24 78.6427 15.24C77.1893 15.24 76.0893 14.7667 75.3427 13.82C74.7293 13.0467 74.4227 12.0467 74.4227 10.82C74.4227 9.03333 74.936 7.67333 75.9627 6.74C76.7227 6.03333 77.6293 5.68 78.6827 5.68C79.5893 5.68 80.3493 5.91333 80.9627 6.38ZM80.9627 9.12C80.8693 8.66667 80.6693 8.3 80.3627 8.02C80.056 7.74 79.696 7.6 79.2827 7.6C78.6293 7.6 78.116 7.85333 77.7427 8.36C77.3827 8.86667 77.2027 9.56 77.2027 10.44C77.2027 12.3467 77.7893 13.3 78.9627 13.3C79.4293 13.3 79.8693 13.1067 80.2827 12.72C80.696 12.32 80.9227 11.8733 80.9627 11.38V9.12ZM91.1945 15V3.64L93.9145 2.1V6.96C94.1945 6.50667 94.6012 6.16 95.1345 5.92C95.5212 5.74667 95.9412 5.66 96.3945 5.66C97.7412 5.66 98.7879 6.10667 99.5345 7C100.215 7.82667 100.555 8.92 100.555 10.28C100.555 12.04 100.055 13.36 99.0545 14.24C98.2945 14.9067 97.3412 15.24 96.1945 15.24C95.1012 15.24 94.2412 14.86 93.6145 14.1L93.4145 15H91.1945ZM93.9145 11.58C93.9545 12.0867 94.1479 12.5133 94.4945 12.86C94.8412 13.1933 95.2612 13.36 95.7545 13.36C96.3545 13.36 96.8212 13.1067 97.1545 12.6C97.5012 12.0933 97.6745 11.3867 97.6745 10.48C97.6745 9.58667 97.5079 8.88667 97.1745 8.38C96.8545 7.87333 96.4212 7.62 95.8745 7.62C94.5679 7.62 93.9145 8.33333 93.9145 9.76V11.58ZM110.802 5.92L107.022 16.3C106.409 17.98 105.522 18.82 104.362 18.82C103.442 18.82 102.496 18.4133 101.522 17.6C101.802 17.1333 102.042 16.7067 102.242 16.32C102.749 16.6533 103.196 16.82 103.582 16.82C104.102 16.82 104.549 16.2133 104.922 15H104.402L101.282 5.92H103.962C104.109 6.37333 104.342 7.09333 104.662 8.08L104.702 8.24C105.236 9.84 105.622 11.0467 105.862 11.86L108.102 5.92H110.802Z" fill="#144B48"/>
<defs>
<clipPath id="clip0_427_10">
<rect width="50" height="47" fill="white" transform="translate(35 24)"/>
</clipPath>
</defs>
</svg>
