<svg width="415" height="109" viewBox="0 0 415 109" fill="none" xmlns="http://www.w3.org/2000/svg">
<path d="M99.2308 94.2943L17.7894 108.145C16.7381 108.325 15.6573 108.2 14.6746 107.786C13.6919 107.371 12.8481 106.684 12.2428 105.806C11.6374 104.928 11.2956 103.895 11.2578 102.83C11.2199 101.764 11.4875 100.709 12.0291 99.7904L29.4975 70.0898C30.1664 68.952 30.4118 67.6146 30.1904 66.3135C29.969 65.0124 29.295 63.8314 28.2875 62.9789L1.98258 40.7257C1.16802 40.0361 0.567368 39.1283 0.25129 38.1089C-0.0647875 37.0896 -0.0831334 36.0011 0.198397 34.9717C0.479927 33.9422 1.04965 33.0146 1.84049 32.2979C2.63133 31.5813 3.6104 31.1054 4.66251 30.9263L86.0826 17.0794C86.8072 16.956 87.549 16.9766 88.2656 17.14C88.9822 17.3034 89.6597 17.6065 90.2591 18.0318C90.8586 18.4572 91.3683 18.9965 91.7592 19.619C92.1501 20.2414 92.4146 20.9349 92.5374 21.6596L103.794 87.8395C104.043 89.3004 103.703 90.8006 102.848 92.0108C101.992 93.221 100.691 94.0423 99.2308 94.2943Z" fill="#103F5D"/>
<path d="M99.2681 88.4329L30.1016 100.196C25.4149 100.993 21.87 95.6418 24.2517 91.3386L38.3117 65.9539C38.9713 64.7413 39.2039 63.342 38.972 61.9811C38.7402 60.6203 38.0574 59.3769 37.0335 58.451L15.3897 39.1334C11.7213 35.8613 13.2892 29.6408 17.9801 28.8398L87.1169 17.0763C90.1632 16.5565 93.0817 18.7465 93.6271 21.959L103.78 81.6712C104.342 84.888 102.314 87.9131 99.2681 88.4329Z" fill="#52B4B6"/>
<path d="M109.596 81.1091C109.322 82.0559 108.79 82.9077 108.059 83.5691C107.329 84.2306 106.428 84.6755 105.459 84.8542L39.0704 96.1448C34.5755 96.916 31.1585 91.6669 33.4379 87.4702L46.8417 62.6948C47.4701 61.5046 47.6887 60.1405 47.4639 58.8135C47.239 57.4865 46.5831 56.2706 45.5977 55.3538L24.7207 36.3984C21.1972 33.1945 22.6756 27.1146 27.1833 26.3519L42.4789 23.7487L93.5891 15.0699C96.5118 14.5799 99.3196 16.7187 99.8521 19.8673L109.788 78.2801C109.949 79.225 109.883 80.1946 109.596 81.1091V81.1091Z" fill="#66C9CB"/>
<g opacity="0.25">
<path opacity="0.25" d="M99.5961 86.1092C83.9171 87.5294 68.2949 89.617 52.7295 92.3722C50.6399 92.7342 48.4916 92.2616 46.7467 91.0561C45.0018 89.8507 43.7997 88.0085 43.3988 85.9259C39.7603 66.8669 36.126 47.8078 32.496 28.7487L83.5891 20.0699C86.5118 19.5799 89.3196 21.7187 89.8521 24.8673L99.7878 83.2801C99.9488 84.225 99.8831 85.1946 99.5961 86.1092V86.1092Z" fill="#C563D4"/>
</g>
<g opacity="0.25">
<path opacity="0.25" d="M109.596 81.1092C93.9112 82.5294 78.289 84.617 62.7293 87.3722C60.6396 87.7342 58.4914 87.2616 56.7465 86.0561C55.0016 84.8507 53.7994 83.0085 53.3986 80.9259C49.76 61.8669 46.1243 42.8078 42.4915 23.7487L93.5846 15.0699C96.5116 14.5799 99.3193 16.7187 99.8477 19.8673L109.788 78.2801C109.949 79.225 109.883 80.1946 109.596 81.1092V81.1092Z" fill="#66C9CB"/>
</g>
<path d="M315.643 94.2943L397.084 108.145C398.136 108.325 399.216 108.2 400.199 107.786C401.182 107.371 402.026 106.684 402.631 105.806C403.236 104.928 403.578 103.895 403.616 102.83C403.654 101.764 403.386 100.709 402.845 99.7904L385.376 70.0898C384.707 68.952 384.462 67.6146 384.683 66.3135C384.905 65.0124 385.579 63.8314 386.586 62.9789L412.891 40.7257C413.706 40.0361 414.306 39.1283 414.622 38.1089C414.939 37.0896 414.957 36.0011 414.675 34.9717C414.394 33.9422 413.824 33.0146 413.033 32.2979C412.242 31.5813 411.263 31.1054 410.211 30.9263L328.791 17.0794C328.067 16.956 327.325 16.9766 326.608 17.14C325.892 17.3034 325.214 17.6065 324.615 18.0318C324.015 18.4572 323.505 18.9965 323.115 19.619C322.724 20.2414 322.459 20.9349 322.336 21.6596L311.08 87.8395C310.83 89.3004 311.171 90.8006 312.026 92.0108C312.882 93.221 314.183 94.0423 315.643 94.2943Z" fill="#103F5D"/>
<path d="M315.606 88.4329L384.772 100.196C389.459 100.993 393.004 95.6418 390.622 91.3386L376.562 65.9539C375.902 64.7413 375.67 63.342 375.902 61.9811C376.134 60.6203 376.816 59.3769 377.84 58.451L399.484 39.1334C403.152 35.8613 401.585 29.6408 396.894 28.8398L327.757 17.0763C324.711 16.5565 321.792 18.7465 321.247 21.959L311.094 81.6712C310.531 84.888 312.559 87.9131 315.606 88.4329Z" fill="#52B4B6"/>
<path d="M305.278 81.1091C305.552 82.0559 306.084 82.9077 306.814 83.5691C307.545 84.2306 308.445 84.6755 309.415 84.8542L375.803 96.1448C380.298 96.916 383.715 91.6669 381.436 87.4702L368.032 62.6948C367.404 61.5046 367.185 60.1405 367.41 58.8135C367.635 57.4865 368.291 56.2706 369.276 55.3538L390.153 36.3984C393.677 33.1945 392.198 27.1146 387.69 26.3519L372.395 23.7487L321.285 15.0699C318.362 14.5799 315.554 16.7187 315.022 19.8673L305.086 78.2801C304.925 79.225 304.991 80.1946 305.278 81.1091V81.1091Z" fill="#66C9CB"/>
<g opacity="0.25">
<path opacity="0.25" d="M315.278 86.1092C330.957 87.5294 346.579 89.617 362.144 92.3722C364.234 92.7342 366.382 92.2616 368.127 91.0561C369.872 89.8507 371.074 88.0085 371.475 85.9259C375.114 66.8669 378.748 47.8078 382.378 28.7487L331.285 20.0699C328.362 19.5799 325.554 21.7187 325.022 24.8673L315.086 83.2801C314.925 84.225 314.991 85.1946 315.278 86.1092V86.1092Z" fill="#C563D4"/>
</g>
<g opacity="0.25">
<path opacity="0.25" d="M305.278 81.1092C320.963 82.5294 336.585 84.617 352.144 87.3722C354.234 87.7342 356.382 87.2616 358.127 86.0561C359.872 84.8507 361.074 83.0085 361.475 80.9259C365.114 61.8669 368.749 42.8078 372.382 23.7487L321.289 15.0699C318.362 14.5799 315.554 16.7187 315.026 19.8673L305.086 78.2801C304.925 79.225 304.991 80.1946 305.278 81.1092V81.1092Z" fill="#66C9CB"/>
</g>
<path d="M348.846 77.3736C259.412 62.3678 168.103 62.3678 78.6688 77.3736C73.8884 78.1746 69.2145 74.0205 68.2175 68.0003C65.8941 53.9062 63.5507 39.673 61.1875 25.3005C60.1565 19.0843 63.4797 13.2558 68.6308 12.3696C164.679 -4.1232 262.836 -4.1232 358.884 12.3696C364.031 13.2558 367.359 19.0843 366.327 25.3005C363.959 39.6758 361.615 53.909 359.297 68.0003C358.301 74.0205 353.627 78.1746 348.846 77.3736Z" fill="url(#paint0_linear_442_60)"/>
<path d="M361.134 24.0649C360.673 26.7775 360.215 29.4844 359.757 32.1856C357.9 43.1098 356.054 53.9459 354.219 64.694C353.239 70.4159 348.654 74.3655 343.959 73.6029C256.152 59.3256 166.616 59.3256 78.8092 73.6029C74.1225 74.3655 69.5295 70.4159 68.5496 64.694C67.2572 57.1016 65.962 49.4666 64.6639 41.789C63.6641 35.9093 62.6601 30.0014 61.6517 24.0649C60.6419 18.1512 63.9013 12.6082 68.9544 11.7688C163.259 -3.92294 259.509 -3.92294 353.814 11.7688C358.88 12.6082 362.143 18.1512 361.134 24.0649Z" fill="#52B4B6"/>
<path d="M346.959 70.4916C259.103 56.8193 169.661 56.8193 81.8047 70.4916C77.118 71.2202 72.5294 67.4368 71.5494 61.9704C69.2771 49.129 66.9778 36.1569 64.6515 23.0541C63.6418 17.3918 66.9054 12.0788 71.9584 11.2736C166.314 -3.75785 262.454 -3.75785 356.809 11.2736C361.862 12.0788 365.126 17.3918 364.116 23.0541C361.793 36.1569 359.493 49.129 357.218 61.9704C356.238 67.4368 351.654 71.2031 346.959 70.4916Z" fill="url(#paint1_linear_442_60)"/>
<g opacity="0.25">
<path opacity="0.25" d="M362.113 32.1981C360.256 43.1222 358.41 53.9583 356.575 64.7064C355.595 70.4284 351.01 74.378 346.315 73.6153C258.508 59.3381 168.972 59.3381 81.1652 73.6153C76.4786 74.378 71.8856 70.4284 70.9057 64.7064C69.6133 57.114 68.3181 49.479 67.02 41.8014C109.707 18.1807 180.412 44.8435 262.82 49.9222C322.405 53.5948 349.63 43.1734 362.113 32.1981Z" fill="#1F0424"/>
</g>
<path d="M133.469 28.24C132.744 28.24 132.157 28.0267 131.709 27.6C131.283 27.152 131.069 26.5653 131.069 25.84C131.069 25.1147 131.283 24.5387 131.709 24.112C132.157 23.6853 132.744 23.472 133.469 23.472C134.173 23.472 134.739 23.6853 135.165 24.112C135.592 24.5387 135.805 25.1147 135.805 25.84C135.805 26.5653 135.592 27.152 135.165 27.6C134.739 28.0267 134.173 28.24 133.469 28.24ZM144.445 37.52H147.581V42H143.997C143.485 42 142.941 41.9467 142.365 41.84C141.917 43.8453 140.851 45.4133 139.165 46.544C137.651 47.568 135.837 48.08 133.725 48.08C130.781 48.08 128.509 47.0453 126.909 44.976C125.651 43.376 125.021 41.488 125.021 39.312C125.021 37.6907 125.395 36.2507 126.141 34.992L130.557 34.064C129.768 35.472 129.373 36.9653 129.373 38.544C129.373 40.0587 129.768 41.2747 130.557 42.192C131.368 43.1307 132.424 43.6 133.725 43.6C136.541 43.6 137.949 42.3307 137.949 39.792V30.064L142.589 27.6V35.664C142.589 36.3467 142.728 36.8267 143.005 37.104C143.283 37.3813 143.763 37.52 144.445 37.52ZM155.487 30.032C157.641 28.0267 160.063 27.024 162.751 27.024C165.311 27.024 167.369 27.92 168.927 29.712C170.228 31.2267 170.879 33.072 170.879 35.248V35.92C170.879 37.9467 170.271 39.504 169.055 40.592C168.031 41.5307 166.676 42 164.991 42H145.855V37.52H150.847V23.824L155.487 21.36V30.032ZM166.239 35.248C166.239 34.096 165.919 33.168 165.279 32.464C164.639 31.7387 163.807 31.376 162.783 31.376C161.332 31.376 159.956 31.9307 158.655 33.04C157.353 34.128 156.297 35.6213 155.487 37.52H164.831C165.428 37.52 165.812 37.4133 165.983 37.2C166.153 36.9867 166.239 36.4853 166.239 35.696V35.248ZM191.466 42H187.658C187.509 43.92 186.656 45.456 185.098 46.608C183.818 47.568 182.314 48.048 180.586 48.048C179.2 48.048 177.802 47.6533 176.394 46.864V42.8C177.674 43.5253 178.89 43.888 180.042 43.888C180.768 43.888 181.429 43.6853 182.026 43.28C182.624 42.8747 182.965 42.4053 183.05 41.872C182.581 41.8507 182.016 41.7973 181.354 41.712C179.221 41.4347 177.546 40.5387 176.33 39.024C175.328 37.744 174.826 36.24 174.826 34.512C174.826 32.1227 175.488 30.2453 176.81 28.88C177.984 27.6427 179.541 27.024 181.482 27.024C183.53 27.024 185.12 27.6427 186.25 28.88C187.21 29.9467 187.69 31.344 187.69 33.072V37.52H191.466V42ZM183.05 33.104C183.05 31.952 182.528 31.376 181.482 31.376C180.096 31.376 179.402 32.368 179.402 34.352C179.402 36.4213 180.618 37.456 183.05 37.456V33.104ZM189.73 42V37.52H191.81C192.706 37.52 193.324 37.3387 193.666 36.976C194.028 36.592 194.21 35.9307 194.21 34.992V23.824L198.85 21.36V35.024C198.85 37.2 198.188 38.928 196.866 40.208C195.65 41.4027 194.039 42 192.034 42H189.73ZM204.599 42V23.824L209.239 21.36V42H204.599ZM243.711 25.232C242.986 25.232 242.399 25.0187 241.951 24.592C241.525 24.144 241.311 23.5573 241.311 22.832C241.311 22.1067 241.525 21.5307 241.951 21.104C242.399 20.6773 242.986 20.464 243.711 20.464C244.415 20.464 244.981 20.6773 245.407 21.104C245.834 21.5307 246.047 22.1067 246.047 22.832C246.047 23.5573 245.834 24.144 245.407 24.592C244.981 25.0187 244.415 25.232 243.711 25.232ZM229.503 42C227.413 42 225.749 41.2853 224.511 39.856C223.445 38.5973 222.911 37.008 222.911 35.088V32.208L227.551 29.712V34.832C227.551 35.8347 227.722 36.5387 228.063 36.944C228.426 37.328 229.055 37.52 229.951 37.52H237.471C237.002 36.624 236.767 35.6213 236.767 34.512C236.767 32.1227 237.418 30.2453 238.719 28.88C239.893 27.6427 241.429 27.024 243.327 27.024C245.269 27.024 246.783 27.6427 247.871 28.88C248.831 29.968 249.311 31.3653 249.311 33.072V35.888C249.311 37.744 248.757 39.2373 247.647 40.368C246.581 41.456 245.119 42 243.263 42H229.503ZM244.671 32.944C244.671 31.8987 244.223 31.376 243.327 31.376C242.005 31.376 241.343 32.368 241.343 34.352C241.343 36.464 241.994 37.52 243.295 37.52C244.213 37.52 244.671 36.9973 244.671 35.952V32.944ZM261.635 41.04C261.166 41.104 260.654 41.136 260.099 41.136C258.094 41.136 256.494 40.3893 255.299 38.896C254.296 37.68 253.795 36.208 253.795 34.48C253.795 32.112 254.446 30.2347 255.747 28.848C256.92 27.632 258.456 27.024 260.355 27.024C262.296 27.024 263.822 27.6427 264.931 28.88C265.87 29.968 266.339 31.3653 266.339 33.072V39.856C266.339 42.6507 265.571 44.784 264.035 46.256C262.84 47.3867 261.326 47.984 259.491 48.048C259.406 48.048 259.32 48.048 259.235 48.048C257.784 48.048 256.387 47.6533 255.043 46.864V42.8C256.302 43.5253 257.518 43.888 258.691 43.888C258.883 43.888 259.054 43.8773 259.203 43.856C260.611 43.7067 261.422 42.768 261.635 41.04ZM261.699 36.784V32.944C261.699 31.8987 261.251 31.376 260.355 31.376C259.032 31.376 258.371 32.3573 258.371 34.32C258.371 36.24 259.043 37.2 260.387 37.2C260.984 37.2 261.422 37.0613 261.699 36.784ZM282.008 37.52H285.144V42H281.56C281.069 42 280.557 41.9467 280.024 41.84C279.533 44.6347 278.157 46.5547 275.896 47.6C275 48.0267 274.029 48.24 272.984 48.24C271.576 48.24 270.2 47.8667 268.856 47.12V43.088C269.965 43.7067 271.043 44.016 272.088 44.016C272.621 44.016 273.112 43.9307 273.56 43.76C274.861 43.312 275.512 42.1173 275.512 40.176V30.064L280.152 27.6V27.632L280.184 27.6V36.208C280.291 37.0827 280.899 37.52 282.008 37.52ZM283.417 42V37.52H288.249C291.727 37.52 294.511 36.5387 296.601 34.576C295.257 32.4 293.679 31.312 291.865 31.312C290.223 31.312 288.324 32.24 286.169 34.096V30.064C287.983 28.0373 290.041 27.024 292.345 27.024H292.409C294.116 27.024 295.769 27.6427 297.369 28.88C298.969 30.096 300.388 31.8347 301.625 34.096V35.792C300.068 37.776 298.127 39.312 295.801 40.4C293.476 41.4667 290.948 42 288.217 42H283.417Z" fill="white"/>
<defs>
<linearGradient id="paint0_linear_442_60" x1="419417" y1="67573.7" x2="419417" y2="88145" gradientUnits="userSpaceOnUse">
<stop stop-color="#358889"/>
<stop offset="0.35" stop-color="#67FCFF"/>
<stop offset="0.75" stop-color="#62F9FC"/>
<stop offset="1" stop-color="#69FCFF"/>
</linearGradient>
<linearGradient id="paint1_linear_442_60" x1="411619" y1="80233.4" x2="411619" y2="61092.4" gradientUnits="userSpaceOnUse">
<stop offset="0.03" stop-color="#66C9CB"/>
<stop offset="0.22" stop-color="#54CBCD"/>
<stop offset="0.35" stop-color="#57C8CA"/>
<stop offset="0.63" stop-color="#57C8CA"/>
<stop offset="0.85" stop-color="#63D7D9"/>
<stop offset="1" stop-color="#5FC3C5"/>
</linearGradient>
</defs>
</svg>
